<svg width="57" height="56" viewBox="0 0 57 56" fill="none" xmlns="http://www.w3.org/2000/svg">
<path d="M28.4085 30.7435C29.9318 30.7435 31.1667 29.5155 31.1667 28.0006C31.1667 26.4858 29.9318 25.2578 28.4085 25.2578C26.8853 25.2578 25.6504 26.4858 25.6504 28.0006C25.6504 29.5155 26.8853 30.7435 28.4085 30.7435Z" fill="#61DAFB"/>
<path fill-rule="evenodd" clip-rule="evenodd" d="M15.4404 26.5571C14.815 27.1186 14.6094 27.6082 14.6094 28.0003C14.6094 28.3925 14.815 28.882 15.4404 29.4435C16.0655 30.0046 17.0264 30.5557 18.2991 31.039C20.8375 32.0028 24.4117 32.6198 28.4092 32.6198C32.4067 32.6198 35.9809 32.0028 38.5193 31.039C39.792 30.5557 40.7529 30.0046 41.378 29.4435C42.0035 28.882 42.209 28.3925 42.209 28.0003C42.209 27.6082 42.0035 27.1186 41.378 26.5571C40.7529 25.996 39.792 25.4449 38.5193 24.9616C35.9809 23.9978 32.4067 23.3809 28.4092 23.3809C24.4117 23.3809 20.8375 23.9978 18.2991 24.9616C17.0264 25.4449 16.0655 25.996 15.4404 26.5571ZM17.5892 23.0919C20.4072 22.0219 24.233 21.3809 28.4092 21.3809C32.5855 21.3809 36.4112 22.0219 39.2292 23.0919C40.6348 23.6256 41.8413 24.2853 42.714 25.0688C43.5864 25.8519 44.209 26.8407 44.209 28.0003C44.209 29.1599 43.5864 30.1487 42.714 30.9318C41.8413 31.7153 40.6348 32.3751 39.2292 32.9087C36.4112 33.9788 32.5855 34.6198 28.4092 34.6198C24.233 34.6198 20.4072 33.9788 17.5892 32.9087C16.1837 32.3751 14.9772 31.7153 14.1044 30.9318C13.232 30.1487 12.6094 29.1599 12.6094 28.0003C12.6094 26.8407 13.232 25.8519 14.1044 25.0688C14.9772 24.2853 16.1837 23.6256 17.5892 23.0919Z" fill="#61DAFB"/>
<path fill-rule="evenodd" clip-rule="evenodd" d="M23.1891 16.112C22.3884 15.8544 21.8565 15.9208 21.5108 16.1193C21.165 16.3178 20.8412 16.7427 20.6652 17.561C20.4892 18.3795 20.4897 19.4818 20.7051 20.8187C21.1347 23.4852 22.3839 26.8705 24.382 30.3121C26.3802 33.7538 28.7037 36.5223 30.8111 38.2255C31.8676 39.0794 32.8273 39.6311 33.6281 39.8887C34.4288 40.1463 34.9607 40.0798 35.3064 39.8813C35.6522 39.6828 35.976 39.258 36.152 38.4396C36.328 37.6212 36.3275 36.5188 36.1121 35.182C35.6825 32.5154 34.4333 29.1302 32.4351 25.6885C30.437 22.2468 28.1135 19.4784 26.0061 17.7751C24.9496 16.9212 23.9899 16.3696 23.1891 16.112ZM27.2668 16.2266C29.6089 18.1196 32.0809 21.095 34.1696 24.6927C36.2583 28.2903 37.6135 31.907 38.091 34.8704C38.3291 36.3486 38.3578 37.7183 38.1117 38.8621C37.8657 40.006 37.3162 41.0336 36.3106 41.611C35.305 42.1883 34.1353 42.1477 33.0161 41.7877C31.897 41.4277 30.7185 40.7181 29.5503 39.774C27.2083 37.8811 24.7363 34.9056 22.6476 31.308C20.5589 27.7103 19.2036 24.0937 18.7262 21.1302C18.4881 19.652 18.4594 18.2824 18.7054 17.1385C18.9515 15.9947 19.501 14.967 20.5066 14.3897C21.5122 13.8123 22.6819 13.8529 23.801 14.2129C24.9202 14.573 26.0986 15.2825 27.2668 16.2266Z" fill="#61DAFB"/>
<path fill-rule="evenodd" clip-rule="evenodd" d="M36.1526 17.561C35.9766 16.7426 35.6528 16.3178 35.3071 16.1193C34.9613 15.9207 34.4294 15.8543 33.6287 16.1119C32.828 16.3695 31.8683 16.9211 30.8117 17.7751C28.7043 19.4783 26.3808 22.2468 24.3827 25.6885C22.3846 29.1301 21.1353 32.5154 20.7057 35.1819C20.4903 36.5188 20.4898 37.6211 20.6659 38.4395C20.8419 39.2579 21.1657 39.6828 21.5114 39.8813C21.8572 40.0798 22.3891 40.1462 23.1898 39.8886C23.9905 39.631 24.9503 39.0794 26.0068 38.2255C28.1142 36.5222 30.4377 33.7537 32.4358 30.3121C34.4339 26.8704 35.6832 23.4852 36.1128 20.8186C36.3282 19.4818 36.3287 18.3794 36.1526 17.561ZM38.0916 21.1301C37.6142 24.0936 36.259 27.7102 34.1703 31.3079C32.0815 34.9056 29.6096 37.881 27.2675 39.7739C26.0993 40.7181 24.9208 41.4276 23.8017 41.7877C22.6825 42.1477 21.5129 42.1883 20.5072 41.6109C19.5016 41.0335 18.9521 40.0059 18.7061 38.862C18.4601 37.7182 18.4887 36.3485 18.7269 34.8704C19.2043 31.9069 20.5595 28.2903 22.6482 24.6926C24.737 21.095 27.209 18.1195 29.551 16.2266C30.7192 15.2824 31.8977 14.5729 33.0168 14.2129C34.136 13.8528 35.3056 13.8123 36.3113 14.3896C37.3169 14.967 37.8664 15.9946 38.1124 17.1385C38.3584 18.2823 38.3298 19.652 38.0916 21.1301Z" fill="#61DAFB"/>
</svg>
