<svg width="51" height="51" viewBox="0 0 51 51" fill="none" xmlns="http://www.w3.org/2000/svg">
<path d="M25.5 49C38.4787 49 49 38.4787 49 25.5C49 12.5213 38.4787 2 25.5 2C12.5213 2 2 12.5213 2 25.5C2 38.4787 12.5213 49 25.5 49Z" fill="#7E6B58"/>
<path d="M17.1915 24.0168L25.5 15.7083L33.8085 24.0168" fill="#7E6B58"/>
<path d="M16.1309 22.9561C15.5451 23.5419 15.5451 24.4917 16.1309 25.0775C16.7167 25.6633 17.6664 25.6633 18.2522 25.0775L16.1309 22.9561ZM25.5 15.7083L26.5607 14.6477C26.2794 14.3664 25.8978 14.2083 25.5 14.2083C25.1022 14.2083 24.7206 14.3664 24.4393 14.6477L25.5 15.7083ZM32.7478 25.0775C33.3336 25.6633 34.2833 25.6633 34.8691 25.0775C35.4549 24.4917 35.4549 23.5419 34.8691 22.9561L32.7478 25.0775ZM24 35.2917C24 36.1201 24.6716 36.7917 25.5 36.7917C26.3284 36.7917 27 36.1201 27 35.2917H24ZM47.5 25.5C47.5 37.6503 37.6503 47.5 25.5 47.5V50.5C39.3071 50.5 50.5 39.3071 50.5 25.5H47.5ZM25.5 47.5C13.3497 47.5 3.5 37.6503 3.5 25.5H0.5C0.5 39.3071 11.6929 50.5 25.5 50.5V47.5ZM3.5 25.5C3.5 13.3497 13.3497 3.5 25.5 3.5V0.5C11.6929 0.5 0.5 11.6929 0.5 25.5H3.5ZM25.5 3.5C37.6503 3.5 47.5 13.3497 47.5 25.5H50.5C50.5 11.6929 39.3071 0.5 25.5 0.5V3.5ZM18.2522 25.0775L26.5607 16.769L24.4393 14.6477L16.1309 22.9561L18.2522 25.0775ZM24.4393 16.769L32.7478 25.0775L34.8691 22.9561L26.5607 14.6477L24.4393 16.769ZM27 35.2917V15.7083H24V35.2917H27Z" fill="white"/>
</svg>
